<svg width="1300" height="1300" viewBox="0 0 1300 1300" fill="none" xmlns="http://www.w3.org/2000/svg">
<path d="M650 1300C290.71 1300 0 1008.86 0 650C0 290.71 291.141 0 650 0C1009.29 0 1300 291.141 1300 650C1300.43 1009.29 1009.29 1300 650 1300Z" fill="#FFDC7C"/>
<mask id="mask0_26_635" style="mask-type:alpha" maskUnits="userSpaceOnUse" x="0" y="0" width="1301" height="1300">
<path d="M650 1300C290.71 1300 0 1008.86 0 650C0 290.71 291.141 0 650 0C1009.29 0 1300 291.141 1300 650C1300.43 1009.29 1009.29 1300 650 1300Z" fill="#F7C0B5"/>
</mask>
<g mask="url(#mask0_26_635)">
<path d="M1014 1197.33C1010.97 1199.5 1007.5 1201.66 1004.47 1203.83C1001 1206 997.967 1208.16 994.5 1209.9C991.467 1211.63 988.867 1213.36 985.833 1215.1C985.4 1215.53 984.967 1215.53 984.533 1215.96C974.567 1222.03 964.167 1227.66 953.767 1232.86C950.733 1234.6 947.267 1236.33 944.233 1237.63C944.233 1237.63 943.8 1238.06 943.367 1238.06C939.9 1239.8 936.433 1241.53 932.967 1243.26C926.033 1246.73 918.667 1249.76 911.733 1252.8C908.267 1254.53 904.367 1255.83 900.9 1257.13C897.433 1258.43 893.533 1260.16 890.067 1261.46C886.6 1262.76 882.7 1264.5 879.233 1265.8C879.233 1265.8 879.233 1265.8 878.8 1265.8C875.333 1267.1 871.433 1268.4 867.967 1269.7C860.167 1272.3 851.933 1274.9 844.133 1277.5C841.533 1278.36 838.5 1279.23 835.9 1280.1C827.667 1282.7 819.433 1284.86 811.2 1286.6C808.167 1287.46 805.133 1287.9 801.667 1288.76C793.867 1290.5 785.633 1292.23 777.833 1293.96C776.1 1294.4 774.8 1294.4 773.067 1294.83C770.467 1295.26 767.433 1295.7 764.833 1296.13C760.933 1296.56 757.467 1297.43 753.567 1297.86C751.833 1298.3 750.1 1298.3 748.367 1298.73C746.2 1299.16 743.6 1299.6 741 1299.6C734.067 1300.46 726.7 1301.33 719.767 1302.2C717.6 1302.63 715 1302.63 712.833 1303.06H712.4C709.367 1303.5 706.333 1303.5 703.3 1303.93C700.267 1304.36 697.233 1304.36 694.2 1304.36C692.467 1304.36 690.3 1304.8 688.567 1304.8C685.1 1304.8 682.067 1305.23 679.033 1305.23C674.7 1305.23 670.8 1305.66 666.467 1305.66C662.133 1305.66 658.233 1305.66 653.9 1305.66C650.867 1305.66 647.833 1305.66 644.8 1305.66C462.367 1303.06 297.7 1225.5 180.7 1102.43C180.7 1102.43 180.7 1102 180.267 1102C193.7 1075.56 243.534 1027.9 295.534 988.465C361.4 938.632 454.567 907.865 454.567 907.865C454.567 907.865 515.667 897.898 742.3 945.132C915.2 981.532 988.867 1129.3 1014 1197.33Z" fill="#F7D3B5"/>
<path d="M790.4 1065.16C781.3 1109.8 722.367 1136.23 623.134 1096.36C501.367 1046.96 454.567 907.865 454.567 907.865C448.067 808.198 432.9 722.832 432.9 722.832C573.734 710.698 740.134 875.365 740.134 875.365L759.2 956.832C760.934 963.765 764.4 969.832 769.6 974.165C778.7 989.765 796.467 1036.56 790.4 1065.16Z" fill="#F7D3B5"/>
<path d="M769.6 974.599C686.833 970.265 625.733 958.132 560.3 840.699C615.767 889.665 681.2 908.299 750.1 916.965L759.2 956.832C760.933 964.199 764.4 970.265 769.6 974.599Z" fill="#EFBDA5"/>
<path d="M940.767 452.432C948.567 488.832 952.467 518.298 931.233 615.365C910 712.432 950.733 809.498 848.467 898.332C779.567 958.132 659.1 969.398 562.9 903.965C530.4 881.865 500.5 851.098 476.233 810.798C457.167 779.165 435.067 749.265 410.367 721.965C376.133 684.698 334.967 609.732 355.333 477.132C388.267 261.332 601.9 236.632 728 260.465C854.1 284.298 919.533 356.232 940.767 452.432Z" fill="#F7D3B5"/>
<path d="M526.067 621.865C526.067 621.865 512.633 556.865 449.367 564.665C394.767 571.598 375.7 702.465 499.633 738.865" fill="#F7D3B5"/>
<path d="M495.734 679.498C495.734 679.498 480.134 669.532 481.867 652.198C484.467 631.832 481.867 619.265 472.334 615.365C448.501 605.398 443.734 633.132 444.601 636.598" stroke="#423232" stroke-width="13" stroke-miterlimit="10" stroke-linecap="round" stroke-linejoin="round"/>
<path d="M826.367 721.532C826.367 721.532 842.833 722.398 858.433 703.765C867.1 693.365 874.467 680.365 869.7 676.465C864.933 672.132 786.5 684.265 781.3 694.665C776.1 705.065 806.433 721.532 826.367 721.532Z" fill="#EFBDA5"/>
<path d="M839.367 575.932C839.367 575.932 840.234 617.098 866.667 663.032C878.367 683.398 860.601 716.765 822.034 722.398" stroke="#423232" stroke-width="13" stroke-miterlimit="10" stroke-linecap="round" stroke-linejoin="round"/>
<path opacity="0.42" d="M604.501 743.632C629.151 743.632 649.134 727.141 649.134 706.799C649.134 686.456 629.151 669.965 604.501 669.965C579.85 669.965 559.867 686.456 559.867 706.799C559.867 727.141 579.85 743.632 604.501 743.632Z" fill="#FE9DAB"/>
<path opacity="0.42" d="M924.3 670.832C923 695.098 923.434 718.932 921.7 742.765C902.634 738.432 888.767 724.132 888.767 707.232C888.767 689.032 903.933 674.298 924.3 670.832Z" fill="#FE9DAB"/>
<path d="M1158.93 1465.49H63.4617C63.4617 1465.49 69.9617 1264.42 135.828 1120.99C185.662 1012.65 303.095 952.421 390.628 921.221C415.328 912.554 437.862 906.054 455.195 901.288C455.195 903.454 455.628 905.188 455.628 907.354C455.628 907.354 502.428 1046.45 624.195 1095.85C723.428 1136.15 782.362 1109.29 791.462 1064.65C797.095 1036.05 779.328 989.254 770.228 974.088C765.028 969.754 761.562 963.254 759.828 956.754L756.362 942.454C764.595 940.721 772.395 938.554 780.195 935.954C782.795 935.088 784.962 934.221 787.562 933.354C843.462 948.088 927.528 983.188 1026.76 1066.39C1138.99 1159.99 1158.93 1465.49 1158.93 1465.49Z" fill="#77BECD"/>
<path d="M586.494 1140.92C436.995 1073.75 378.928 953.721 390.195 921.221C390.195 921.221 390.195 920.787 390.628 920.354C398.428 904.321 410.995 891.321 426.595 882.221C435.261 877.021 444.795 872.254 452.595 869.654C453.028 875.721 454.761 894.787 455.194 901.287C455.194 903.454 455.628 905.187 455.628 907.354C455.628 907.354 483.361 1010.92 605.128 1060.32C704.361 1100.62 765.895 1074.19 772.395 1029.12C779.761 979.287 751.595 943.321 751.595 943.321C759.828 941.587 772.828 938.554 780.628 935.954C799.695 958.921 819.195 981.887 826.561 1042.55C836.961 1129.65 741.194 1210.69 586.494 1140.92Z" fill="white"/>
<path d="M277.962 1465.49L258.462 1304.72" stroke="#544D4D" stroke-width="13" stroke-miterlimit="10" stroke-linecap="round" stroke-linejoin="round"/>
<path d="M1034.56 1250.12C1034.56 1250.12 1021.56 1281.75 1025.46 1313.39C1029.36 1345.02 1040.63 1391.39 1024.6 1465.49" stroke="#544D4D" stroke-width="13" stroke-miterlimit="10" stroke-linecap="round" stroke-linejoin="round"/>
<path d="M683.943 619.439C673.543 619.006 665.743 610.339 666.61 599.939L667.043 587.806C667.476 577.406 676.143 569.606 686.543 570.473C696.943 570.906 704.743 579.573 703.876 589.973L703.443 602.106C703.01 612.073 694.343 619.873 683.943 619.439Z" fill="#423232"/>
<path d="M866.375 625.939C856.842 625.506 849.475 617.272 849.909 607.739L850.342 596.472C850.775 586.939 859.009 579.572 868.542 580.006C878.075 580.439 885.442 588.672 885.009 598.206L884.575 609.472C884.142 619.006 875.909 626.372 866.375 625.939Z" fill="#423232"/>
<path d="M725.977 594.306C725.977 594.306 714.71 578.273 695.21 575.239C679.177 572.639 661.41 580.439 658.81 589.539" stroke="#423232" stroke-width="13" stroke-miterlimit="10" stroke-linecap="round" stroke-linejoin="round"/>
<path d="M853.809 598.206C853.809 598.206 853.809 584.339 873.743 584.339C890.209 584.339 897.143 599.506 897.143 599.506" stroke="#423232" stroke-width="13" stroke-miterlimit="10" stroke-linecap="round" stroke-linejoin="round"/>
<path d="M743.743 524.539C752.843 527.573 761.943 519.339 760.209 509.373C759.343 504.173 757.176 498.973 752.843 495.073C739.843 483.373 686.109 472.973 653.609 488.139C625.009 502.006 702.143 510.673 743.743 524.539Z" fill="#423232"/>
<path d="M873.308 531.473C865.941 534.073 858.141 526.273 859.441 517.173C859.874 512.406 861.608 507.639 865.074 504.173C875.474 493.773 911.008 485.539 933.541 501.573C953.041 515.006 907.108 518.906 873.308 531.473Z" fill="#423232"/>
<path d="M793.697 770.764C768.997 785.497 725.231 769.464 704.864 744.764" stroke="#423232" stroke-width="13" stroke-miterlimit="10" stroke-linecap="round" stroke-linejoin="round"/>
<path d="M1017.77 802.553C984.832 737.987 1019.5 725.42 999.566 676.02C970.099 603.22 972.266 592.82 975.732 576.353C1001.73 453.72 1018.63 321.12 866.966 242.687C696.232 154.287 457.466 190.253 368.632 299.453C293.232 391.32 315.332 439.42 296.266 504.42C277.632 567.253 193.566 568.987 232.132 698.987C251.632 764.853 173.199 799.52 190.532 910.453C311.432 964.62 437.532 990.187 566.232 997.987C601.332 911.753 492.999 892.253 491.699 763.553C491.699 754.886 492.132 746.653 492.999 738.853C372.966 701.153 392.466 572.886 446.632 565.953C484.332 561.186 504.266 582.42 514.232 600.187C515.099 602.787 516.399 604.953 517.699 607.553C534.166 635.72 621.266 610.153 679.766 542.12C742.599 469.32 737.832 474.953 769.466 431.187C833.166 343.653 831.432 433.786 847.466 445.92C869.999 462.82 855.699 475.386 890.799 533.453C906.399 559.453 934.999 585.02 928.066 615.786C906.832 712.42 947.566 809.92 845.299 898.753C822.332 918.687 790.266 936.02 752.566 943.386C754.299 956.386 759.499 975.453 771.199 995.82C860.032 989.753 949.299 977.186 1038.57 962.02C1052.43 913.92 1045.5 856.72 1017.77 802.553Z" fill="#423232"/>
<path d="M518.133 607.12C516.833 604.953 515.533 602.353 514.666 599.753C515.966 602.353 517.266 604.953 518.133 607.12Z" fill="#FEE4BF"/>
<path d="M941.066 614.053C941.066 614.053 1055.47 576.786 1012.13 466.72C988.299 406.053 986.999 337.153 962.299 292.953C928.066 231.853 873.466 213.653 792.866 230.553C654.199 259.586 879.099 226.22 892.966 326.32C906.399 426.42 941.066 614.053 941.066 614.053Z" fill="#423232"/>
<path opacity="0.6" d="M747.933 670.912C747.933 670.912 707.199 696.479 661.266 696.045C615.333 695.612 609.699 659.645 609.266 640.145C609.266 640.145 615.333 668.312 643.066 678.712C670.366 689.112 747.933 670.912 747.933 670.912Z" fill="#B7AEA9"/>
<path opacity="0.6" d="M878.799 666.145C878.799 666.145 888.765 678.279 902.199 686.945C911.299 693.012 923.432 686.512 923.432 675.679C923.866 675.679 898.299 676.979 878.799 666.145Z" fill="#B7AEA9"/>
<path opacity="0.43" d="M763.966 548.279L636.566 675.679C646.533 681.746 658.666 684.779 670.799 683.046L731.466 675.246C749.666 672.646 766.566 663.546 779.566 648.379C784.766 642.746 787.799 634.946 788.233 626.712L790.399 583.812C791.266 565.179 779.566 549.579 763.966 548.279Z" fill="#EFE2E4"/>
<path opacity="0.3" d="M763.966 548.279L642.2 537.012C621.833 535.279 604.5 553.912 604.5 577.312V614.145C604.5 641.012 617.5 663.979 636.566 675.679L763.966 548.279Z" fill="#EFE2E4"/>
<path opacity="0.3" d="M941.632 543.945L865.365 553.912C855.399 555.212 848.032 569.512 848.899 585.979L850.199 624.545C850.632 631.912 852.366 638.845 855.399 644.045C860.599 652.712 867.099 659.212 874.032 663.545L964.599 572.979C962.866 555.645 952.899 542.645 941.632 543.945Z" fill="#EFE2E4"/>
<path opacity="0.43" d="M874.466 663.979C878.366 666.146 881.832 667.879 886.166 668.746L923.866 676.112C945.966 680.446 965.466 651.412 965.466 613.712V580.779C965.466 578.179 965.466 576.012 965.032 573.846L874.466 663.979Z" fill="#EFE2E4"/>
<path d="M763.966 548.279L642.2 537.012C621.833 535.279 604.5 553.912 604.5 577.312V614.145C604.5 655.745 635.7 687.812 670.8 683.045L731.466 675.245C749.666 672.645 766.566 663.545 779.566 648.379C784.766 642.745 787.8 634.945 788.233 626.712L790.4 583.812C791.266 565.179 779.566 549.579 763.966 548.279Z" stroke="#755B7A" stroke-width="14.0292" stroke-miterlimit="10" stroke-linecap="round" stroke-linejoin="round"/>
<path d="M865.799 554.345L942.066 544.379C954.632 542.645 965.466 559.545 965.466 580.779V613.712C965.466 650.979 945.965 680.012 923.866 676.112L886.166 668.745C874.899 666.579 864.066 657.912 856.266 644.479C853.232 639.279 851.066 632.345 851.066 624.979L849.766 586.412C848.466 569.945 855.832 555.645 865.799 554.345Z" stroke="#755B7A" stroke-width="14.0292" stroke-miterlimit="10" stroke-linecap="round" stroke-linejoin="round"/>
<path d="M604.499 581.645L504.399 579.479" stroke="#755B7A" stroke-width="13" stroke-miterlimit="10" stroke-linecap="round" stroke-linejoin="round"/>
<path d="M790.399 584.679C790.399 584.679 842.833 574.279 849.333 584.679" stroke="#755B7A" stroke-width="14.0292" stroke-miterlimit="10" stroke-linecap="round" stroke-linejoin="round"/>
</g>
</svg>
