<svg width="298" height="21" viewBox="0 0 298 21" fill="none" xmlns="http://www.w3.org/2000/svg">
<path d="M294.473 7C289.536 7 287.067 9.45 283.893 12.95C283.754 13.0887 283.613 13.229 283.471 13.3707C280.025 16.8035 275.814 21 268.024 21C260.234 21 256.022 16.8035 252.577 13.3707C252.434 13.2291 252.294 13.0887 252.154 12.95C251.953 12.7511 251.756 12.5536 251.56 12.3582C248.658 9.4576 246.2 7 241.574 7C236.637 7 234.168 9.45 230.994 12.95C230.854 13.0887 230.713 13.229 230.571 13.3707C227.126 16.8035 222.914 21 215.124 21C207.334 21 203.123 16.8035 199.677 13.3707C199.535 13.2291 199.394 13.0887 199.254 12.95C199.054 12.7511 198.856 12.5536 198.661 12.3582C195.759 9.4576 193.3 7 188.675 7C183.737 7 181.269 9.45 178.095 12.95C177.955 13.0887 177.814 13.2291 177.672 13.3707C174.227 16.8035 170.015 21 162.225 21C154.435 21 150.223 16.8035 146.778 13.3707C146.636 13.229 146.495 13.0887 146.355 12.95C146.155 12.7511 145.957 12.5536 145.761 12.3581C142.859 9.45759 140.401 7 135.775 7C130.838 7 128.369 9.45 125.195 12.95C125.056 13.0887 124.915 13.2291 124.772 13.3707C121.327 16.8035 117.115 21 109.325 21C101.536 21 97.3238 16.8035 93.8784 13.3707C93.7362 13.2291 93.5954 13.0887 93.4556 12.95C93.2552 12.7511 93.0576 12.5536 92.8621 12.3582C89.9601 9.45759 87.5013 7 82.8757 7C77.9385 7 75.4698 9.45 72.2959 12.95C72.1561 13.0887 72.0152 13.2291 71.8731 13.3707C68.4277 16.8035 64.2158 21 56.426 21C48.6362 21 44.4244 16.8035 40.979 13.3707C40.8368 13.2291 40.696 13.0887 40.5562 12.95C40.3558 12.7511 40.1582 12.5536 39.9627 12.3582C37.0607 9.4576 34.6019 7 29.9763 7C25.0391 7 22.5704 9.45 19.3965 12.95C19.2567 13.0887 19.1158 13.2291 18.9737 13.3707C15.5283 16.8035 11.3164 21 3.52663 21C1.41065 21 0 19.6 0 17.5C0 15.4 1.41065 14 3.52663 14C8.46391 14 10.9325 11.55 14.1065 8.05C14.2463 7.9113 14.3871 7.77095 14.5293 7.62929C17.9746 4.19652 22.1865 1.90735e-06 29.9763 1.90735e-06C37.7661 1.90735e-06 41.978 4.19652 45.4234 7.62929C45.5655 7.77094 45.7064 7.91129 45.8462 8.05C46.0466 8.24888 46.2441 8.44636 46.4397 8.64184C49.3417 11.5424 51.8005 14 56.426 14C61.3633 14 63.832 11.55 67.0059 8.05C67.1457 7.91129 67.2865 7.77094 67.4287 7.62929C70.8741 4.19652 75.0859 1.90735e-06 82.8757 1.90735e-06C90.6655 1.90735e-06 94.8774 4.19652 98.3228 7.6293C98.4649 7.77095 98.6058 7.9113 98.7456 8.05C98.946 8.24888 99.1435 8.44636 99.3391 8.64184C102.241 11.5424 104.7 14 109.325 14C114.263 14 116.731 11.55 119.905 8.05C120.045 7.9113 120.186 7.77095 120.328 7.6293C123.773 4.19652 127.985 1.90735e-06 135.775 1.90735e-06C143.565 1.90735e-06 147.777 4.19652 151.222 7.62929C151.364 7.77094 151.505 7.91129 151.645 8.05C151.845 8.24888 152.043 8.44636 152.239 8.64184C155.141 11.5424 157.599 14 162.225 14C167.162 14 169.631 11.55 172.805 8.05C172.945 7.91129 173.085 7.77093 173.228 7.62928C176.673 4.1965 180.885 1.90735e-06 188.675 1.90735e-06C196.464 1.90735e-06 200.676 4.19653 204.122 7.62931C204.264 7.77096 204.405 7.9113 204.544 8.05C204.745 8.24889 204.942 8.44638 205.138 8.64186C208.04 11.5424 210.499 14 215.124 14C220.062 14 222.53 11.55 225.704 8.05C225.844 7.9113 225.985 7.77096 226.127 7.62931C229.572 4.19653 233.784 1.90735e-06 241.574 1.90735e-06C249.364 1.90735e-06 253.576 4.19652 257.021 7.62929C257.163 7.77094 257.304 7.91129 257.444 8.05C257.644 8.24886 257.842 8.44633 258.037 8.64179C260.939 11.5424 263.398 14 268.024 14C272.961 14 275.43 11.55 278.604 8.05C278.743 7.91128 278.884 7.77092 279.026 7.62925C282.472 4.19649 286.684 1.90735e-06 294.473 1.90735e-06C296.589 1.90735e-06 298 1.4 298 3.5C298 5.6 296.237 7 294.473 7Z" fill="#E9B384"/>
<path d="M294.473 7C289.536 7 287.067 9.45 283.893 12.95C283.754 13.0887 283.613 13.229 283.471 13.3707C280.025 16.8035 275.814 21 268.024 21C260.234 21 256.022 16.8035 252.577 13.3707C252.434 13.2291 252.294 13.0887 252.154 12.95C251.953 12.7511 251.756 12.5536 251.56 12.3582C248.658 9.4576 246.2 7 241.574 7C236.637 7 234.168 9.45 230.994 12.95C230.854 13.0887 230.713 13.229 230.571 13.3707C227.126 16.8035 222.914 21 215.124 21C207.334 21 203.123 16.8035 199.677 13.3707C199.535 13.2291 199.394 13.0887 199.254 12.95C199.054 12.7511 198.856 12.5536 198.661 12.3582C195.759 9.4576 193.3 7 188.675 7C183.737 7 181.269 9.45 178.095 12.95C177.955 13.0887 177.814 13.2291 177.672 13.3707C174.227 16.8035 170.015 21 162.225 21C154.435 21 150.223 16.8035 146.778 13.3707C146.636 13.229 146.495 13.0887 146.355 12.95C146.155 12.7511 145.957 12.5536 145.761 12.3581C142.859 9.45759 140.401 7 135.775 7C130.838 7 128.369 9.45 125.195 12.95C125.056 13.0887 124.915 13.2291 124.772 13.3707C121.327 16.8035 117.115 21 109.325 21C101.536 21 97.3238 16.8035 93.8784 13.3707C93.7362 13.2291 93.5954 13.0887 93.4556 12.95C93.2552 12.7511 93.0576 12.5536 92.8621 12.3582C89.9601 9.45759 87.5013 7 82.8757 7C77.9385 7 75.4698 9.45 72.2959 12.95C72.1561 13.0887 72.0152 13.2291 71.8731 13.3707C68.4277 16.8035 64.2158 21 56.426 21C48.6362 21 44.4244 16.8035 40.979 13.3707C40.8368 13.2291 40.696 13.0887 40.5562 12.95C40.3558 12.7511 40.1582 12.5536 39.9627 12.3582C37.0607 9.4576 34.6019 7 29.9763 7C25.0391 7 22.5704 9.45 19.3965 12.95C19.2567 13.0887 19.1158 13.2291 18.9737 13.3707C15.5283 16.8035 11.3164 21 3.52663 21C1.41065 21 0 19.6 0 17.5C0 15.4 1.41065 14 3.52663 14C8.46391 14 10.9325 11.55 14.1065 8.05C14.2463 7.9113 14.3871 7.77095 14.5293 7.62929C17.9746 4.19652 22.1865 1.90735e-06 29.9763 1.90735e-06C37.7661 1.90735e-06 41.978 4.19652 45.4234 7.62929C45.5655 7.77094 45.7064 7.91129 45.8462 8.05C46.0466 8.24888 46.2441 8.44636 46.4397 8.64184C49.3417 11.5424 51.8005 14 56.426 14C61.3633 14 63.832 11.55 67.0059 8.05C67.1457 7.91129 67.2865 7.77094 67.4287 7.62929C70.8741 4.19652 75.0859 1.90735e-06 82.8757 1.90735e-06C90.6655 1.90735e-06 94.8774 4.19652 98.3228 7.6293C98.4649 7.77095 98.6058 7.9113 98.7456 8.05C98.946 8.24888 99.1435 8.44636 99.3391 8.64184C102.241 11.5424 104.7 14 109.325 14C114.263 14 116.731 11.55 119.905 8.05C120.045 7.9113 120.186 7.77095 120.328 7.6293C123.773 4.19652 127.985 1.90735e-06 135.775 1.90735e-06C143.565 1.90735e-06 147.777 4.19652 151.222 7.62929C151.364 7.77094 151.505 7.91129 151.645 8.05C151.845 8.24888 152.043 8.44636 152.239 8.64184C155.141 11.5424 157.599 14 162.225 14C167.162 14 169.631 11.55 172.805 8.05C172.945 7.91129 173.085 7.77093 173.228 7.62928C176.673 4.1965 180.885 1.90735e-06 188.675 1.90735e-06C196.464 1.90735e-06 200.676 4.19653 204.122 7.62931C204.264 7.77096 204.405 7.9113 204.544 8.05C204.745 8.24889 204.942 8.44638 205.138 8.64186C208.04 11.5424 210.499 14 215.124 14C220.062 14 222.53 11.55 225.704 8.05C225.844 7.9113 225.985 7.77096 226.127 7.62931C229.572 4.19653 233.784 1.90735e-06 241.574 1.90735e-06C249.364 1.90735e-06 253.576 4.19652 257.021 7.62929C257.163 7.77094 257.304 7.91129 257.444 8.05C257.644 8.24886 257.842 8.44633 258.037 8.64179C260.939 11.5424 263.398 14 268.024 14C272.961 14 275.43 11.55 278.604 8.05C278.743 7.91128 278.884 7.77092 279.026 7.62925C282.472 4.19649 286.684 1.90735e-06 294.473 1.90735e-06C296.589 1.90735e-06 298 1.4 298 3.5C298 5.6 296.237 7 294.473 7Z" stroke="#E9B384"/>
</svg>
